<svg xmlns="http://www.w3.org/2000/svg" width="30" height="22.852" viewBox="0 0 30 22.852">
  <g id="interface" transform="translate(-2 -63)">
    <g id="Group_32" data-name="Group 32" transform="translate(2 63)">
      <path id="Path_23" data-name="Path 23" d="M27.363,61H2.637A2.641,2.641,0,0,0,0,63.637V81.215a2.641,2.641,0,0,0,2.637,2.637H27.363A2.641,2.641,0,0,0,30,81.215V63.637A2.641,2.641,0,0,0,27.363,61ZM27,62.758,15.056,74.7,3.009,62.758ZM1.758,80.851V63.992l8.466,8.393ZM3,82.094l8.471-8.471,2.968,2.943a.879.879,0,0,0,1.24,0l2.894-2.894L27,82.094Zm25.241-1.243-8.425-8.425L28.242,64Z" transform="translate(0 -61)" fill="#0679e4"/>
    </g>
  </g>
</svg>
