<svg xmlns="http://www.w3.org/2000/svg" width="30" height="26.053" viewBox="0 0 30 26.053">
  <g id="phone" transform="translate(0 -2.272)">
    <path id="Path_18" data-name="Path 18" d="M25.47,17.093c-2.02-.473-4.6-1.71-5.538-3.245a2.651,2.651,0,0,1-.155-2.642c.023-.044.064-.111.095-.163a1.476,1.476,0,0,1,.149-.736l.017-.038H9.658l.012.028v0c.233.363.436.688.544.9a2.656,2.656,0,0,1-.148,2.653c-.938,1.537-3.52,2.773-5.541,3.246l-.558,9.364a1.637,1.637,0,0,0,1.5,1.866H24.533a1.636,1.636,0,0,0,1.495-1.866ZM11.882,23.542H10.092a.6.6,0,0,1,0-1.195h1.791a.6.6,0,0,1,0,1.195Zm0-2.277H10.092a.6.6,0,1,1,0-1.194h1.791a.6.6,0,1,1,0,1.194Zm0-2.277H10.092a.6.6,0,0,1,0-1.195h1.791a.6.6,0,0,1,0,1.195ZM15.9,23.542h-1.79a.6.6,0,0,1,0-1.195H15.9a.6.6,0,1,1,0,1.195Zm0-2.277h-1.79a.6.6,0,1,1,0-1.194H15.9a.6.6,0,1,1,0,1.194Zm0-2.277h-1.79a.6.6,0,0,1,0-1.195H15.9a.6.6,0,1,1,0,1.195Zm4.012,4.554H18.117a.6.6,0,0,1,0-1.195h1.791a.6.6,0,1,1,0,1.195Zm0-2.277H18.117a.6.6,0,0,1,0-1.194h1.791a.6.6,0,1,1,0,1.194Zm0-2.277H18.117a.6.6,0,0,1,0-1.195h1.791a.6.6,0,0,1,0,1.195Zm9.941-7.3a2.907,2.907,0,0,1-.113.561,21.27,21.27,0,0,1-1.837,2.87c-.769,1.228-7.3-1.419-6.458-3.058a16.738,16.738,0,0,0,1.646-2.953c.085-.6-.71-1.071-1.445-1.131-1.938-.157-4.414-.015-6.471,0v0h-.343v0c-2.057-.013-4.533-.155-6.471,0-.735.06-1.53.53-1.446,1.131a16.794,16.794,0,0,0,1.646,2.953C9.4,13.7,2.869,16.346,2.1,15.118a21.192,21.192,0,0,1-1.838-2.87,2.972,2.972,0,0,1-.112-.561c-.959-4.281,2.734-8.649,8.294-9.1,2.123-.172,4.252-.269,6.383-.307v-.01L15,2.277l.172-.005v.01c2.129.038,4.258.135,6.383.307C27.113,3.037,30.806,7.407,29.849,11.687Z" transform="translate(0)" fill="#0679e4"/>
  </g>
</svg>
