<?xml version="1.0"?>
<svg xmlns="http://www.w3.org/2000/svg" viewBox="0 0 64 64" width="512" height="512"><g id="Outline"><g><path d="M61.883,43.554a.9.9,0,0,0-.051-.109l-8-12A1,1,0,0,0,53,31H43a1,1,0,0,0,0,2h9.465l6.666,10H50a3,3,0,0,1-3-3V36a1,1,0,0,0-2,0v4a5.006,5.006,0,0,0,5,5H60v6H58.19a1,1,0,0,0,0,2H61a1,1,0,0,0,1-1V44a.981.981,0,0,0-.07-.347A.9.9,0,0,0,61.883,43.554Z"/><path d="M11,31a1,1,0,0,0,0-2H7a1,1,0,0,0-1,1v8a1,1,0,0,0,2,0V35h2a1,1,0,0,0,0-2H8V31Z"/><path d="M27,31a1,1,0,0,0,0-2H23a1,1,0,0,0-1,1v8a1,1,0,0,0,1,1h4a1,1,0,0,0,0-2H24V35h2a1,1,0,0,0,0-2H24V31Z"/><path d="M35,31a1,1,0,0,0,0-2H31a1,1,0,0,0-1,1v8a1,1,0,0,0,1,1h4a1,1,0,0,0,0-2H32V35h2a1,1,0,0,0,0-2H32V31Z"/><path d="M20,32.205V31.8A2.8,2.8,0,0,0,17.2,29H15a1,1,0,0,0-1,1v8a1,1,0,0,0,2,0V35.171A3.006,3.006,0,0,1,18,38a1,1,0,0,0,2,0,4.97,4.97,0,0,0-1.362-3.408A2.788,2.788,0,0,0,20,32.205ZM16,31h1.2a.8.8,0,0,1,.8.8v.41a.8.8,0,0,1-.8.8H16Z"/><path d="M49,58a3,3,0,1,0-3-3A3,3,0,0,0,49,58Zm0-4a1,1,0,1,1-1,1A1,1,0,0,1,49,54Z"/><path d="M13,58a3,3,0,1,0-3-3A3,3,0,0,0,13,58Zm0-4a1,1,0,1,1-1,1A1,1,0,0,1,13,54Z"/><path d="M61,12a1,1,0,0,0,1-1V7a5.006,5.006,0,0,0-5-5H16a1,1,0,0,0,0,2H39.026A4.948,4.948,0,0,0,38,7V9H28a1,1,0,0,0,0,2H38v4H33a1,1,0,0,0,0,2h5v2a4.947,4.947,0,0,0,1.031,3.006c-.011,0-.02-.006-.031-.006H17a1,1,0,0,0,0,2H38V44H4V24h9a1,1,0,0,0,0-2H3a1,1,0,0,0-1,1V52a1,1,0,0,0,1,1H6.3a7.024,7.024,0,1,0,.969-2H4V46H38v5H22.19a1,1,0,1,0,0,2H42.3a7.024,7.024,0,1,0,.969-2H40V23c0-.011-.006-.02-.006-.031A4.947,4.947,0,0,0,43,24h5v4a1,1,0,0,0,1.707.707L54.414,24H56a6.006,6.006,0,0,0,6-6V15a1,1,0,0,0-2,0v3a4,4,0,0,1-4,4H54a1,1,0,0,0-.707.293L50,25.586V23a1,1,0,0,0-1-1H43a3,3,0,0,1-3-3V7a3,3,0,0,1,3-3H57a3,3,0,0,1,3,3v4A1,1,0,0,0,61,12ZM13,50a5,5,0,1,1-5,5A5.006,5.006,0,0,1,13,50Zm36,0a5,5,0,1,1-5,5A5.006,5.006,0,0,1,49,50Z"/><path d="M47,20h6a3,3,0,0,0,3-3V15.816a2.982,2.982,0,0,0,0-5.632V9a3,3,0,0,0-3-3H47a3,3,0,0,0-3,3v1.184a2.982,2.982,0,0,0,0,5.632V17A3,3,0,0,0,47,20Zm6-2H47a1,1,0,0,1-1-1V16h8v1A1,1,0,0,1,53,18ZM47,8h6a1,1,0,0,1,1,1v1H46V9A1,1,0,0,1,47,8Zm-2,4h1a1,1,0,0,0,2,0h1a1,1,0,0,0,2,0h1a1,1,0,0,0,2,0h1a1,1,0,0,1,0,2H45a1,1,0,0,1,0-2Z"/><path d="M28,19a1,1,0,0,0-1-1H12a1,1,0,0,0,0,2H27A1,1,0,0,0,28,19Z"/><path d="M19,15a1,1,0,0,0,0-2H16a1,1,0,0,0,0,2Z"/><path d="M9,9H19a1,1,0,0,0,0-2H9A1,1,0,0,0,9,9Z"/></g></g></svg>
