<svg xmlns="http://www.w3.org/2000/svg" xmlns:xlink="http://www.w3.org/1999/xlink" width="23.765" height="23.775" viewBox="0 0 23.765 23.775">
  <defs>
    <clipPath id="clip-path">
      <rect width="23.765" height="23.775" fill="none"/>
    </clipPath>
  </defs>
  <g id="Sign-Up-_-Login" data-name="Sign-Up-&amp;-Login" clip-path="url(#clip-path)">
    <g id="Sign-Up-_-Login-2" data-name="Sign-Up-&amp;-Login" transform="translate(-0.001 -0.001)">
      <g id="Assets" transform="translate(-260 -430)">
        <g id="Aparat_Silhouette" data-name="Aparat/Silhouette" transform="translate(41 35)">
          <g id="Group_81" data-name="Group 81" transform="translate(219 395)">
            <g id="icon--color-black">
              <path id="Combined-Shape" d="M20.835,18.661,20.2,21.04a3.68,3.68,0,0,1-4.5,2.612h0l-2.243-.605a11.277,11.277,0,0,0,7.377-4.386ZM11.885,1.579a10.306,10.306,0,1,1-9.524,6.36A10.306,10.306,0,0,1,11.885,1.579ZM.661,13.68a11.273,11.273,0,0,0,4.163,7.078h0L2.737,20.2A3.68,3.68,0,0,1,.125,15.7h0ZM15.384,13.6a2.943,2.943,0,1,0,1.881,1.24A2.943,2.943,0,0,0,15.384,13.6ZM8,12.174a2.943,2.943,0,1,0,1.88,1.242A2.943,2.943,0,0,0,8,12.174Zm4.071-1.5A1.308,1.308,0,1,0,13.113,12.2,1.308,1.308,0,0,0,12.071,10.673Zm4.813-4.862A2.943,2.943,0,0,0,15.77,11.59h0a2.943,2.943,0,1,0,1.113-5.779Zm1.805-2.868,2.341.623a3.68,3.68,0,0,1,2.616,4.49h0L23,10.49a11.269,11.269,0,0,0-4.313-7.548ZM9.495,4.388a2.943,2.943,0,1,0,2.333,3.446A2.943,2.943,0,0,0,9.495,4.388ZM5.276.5A3.68,3.68,0,0,1,8.07.125h0L10.257.7A11.27,11.27,0,0,0,3.019,4.8h0l.546-2.063A3.68,3.68,0,0,1,5.276.5Z" fill="#fff" fill-rule="evenodd"/>
            </g>
          </g>
        </g>
      </g>
    </g>
  </g>
</svg>
